<svg xmlns="http://www.w3.org/2000/svg" viewBox="0 0 64 64" fill="none">
  <rect width="64" height="64" rx="12" fill="#1e1e2e"/>
  <g transform="translate(10.75, 10.75) scale(2.5)">
    <path d="M15.3976 16.0173C15.6145 16.0173 15.723 16.0173 15.8058 15.9751C15.8787 15.9379 15.9379 15.8787 15.9751 15.8058C16.0173 15.723 16.0173 15.6145 16.0173 15.3976V7.34182C16.0173 7.12491 16.0173 7.01646 15.9751 6.93361C15.9379 6.86074 15.8787 6.80149 15.8058 6.76436C15.723 6.72214 15.6145 6.72214 15.3976 6.72214L13.5386 6.72214C13.3217 6.72214 13.2132 6.72214 13.1304 6.76435C13.0575 6.80149 12.9982 6.86073 12.9611 6.93361C12.9189 7.01646 12.9189 7.12491 12.9189 7.34182V9.20084C12.9189 9.41775 12.9189 9.5262 12.8767 9.60905C12.8395 9.68192 12.7803 9.74117 12.7074 9.7783C12.6246 9.82052 12.5161 9.82052 12.2992 9.82052H10.4402C10.2233 9.82052 10.1148 9.82052 10.032 9.86273C9.95911 9.89986 9.89986 9.95911 9.86273 10.032C9.82052 10.1148 9.82052 10.2233 9.82052 10.4402V12.2992C9.82052 12.5161 9.82052 12.6246 9.7783 12.7074C9.74117 12.7803 9.68192 12.8395 9.60905 12.8767C9.5262 12.9189 9.41775 12.9189 9.20084 12.9189H7.34182C7.12491 12.9189 7.01646 12.9189 6.93361 12.9611C6.86073 12.9982 6.80149 13.0575 6.76435 13.1304C6.72214 13.2132 6.72214 13.3217 6.72214 13.5386V15.3976C6.72214 15.6145 6.72214 15.7229 6.76435 15.8058C6.80149 15.8787 6.86073 15.9379 6.93361 15.9751C7.01646 16.0173 7.12491 16.0173 7.34182 16.0173L15.3976 16.0173Z" stroke="white" stroke-width="1.0503" stroke-linecap="round" stroke-linejoin="round"/>
    <path d="M6.72214 4.24344C6.72214 4.02653 6.72214 3.91808 6.76435 3.83523C6.80149 3.76236 6.86073 3.70311 6.93361 3.66598C7.01646 3.62377 7.12491 3.62377 7.34182 3.62377H9.20084C9.41775 3.62377 9.5262 3.62377 9.60905 3.66598C9.68192 3.70311 9.74117 3.76236 9.7783 3.83523C9.82052 3.91808 9.82052 4.02653 9.82052 4.24344V6.10247C9.82052 6.31937 9.82052 6.42783 9.7783 6.51067C9.74117 6.58355 9.68192 6.6428 9.60905 6.67993C9.5262 6.72214 9.41775 6.72214 9.20084 6.72214H7.34182C7.12491 6.72214 7.01646 6.72214 6.93361 6.67993C6.86073 6.6428 6.80149 6.58355 6.76435 6.51067C6.72214 6.42783 6.72214 6.31937 6.72214 6.10247V4.24344Z" stroke="white" stroke-width="1.0503" stroke-linecap="round" stroke-linejoin="round"/>
    <path d="M1.29998 8.891C1.29998 8.6741 1.29998 8.56564 1.3422 8.4828C1.37933 8.40992 1.43858 8.35067 1.51145 8.31354C1.5943 8.27133 1.70275 8.27133 1.91966 8.27133H3.77868C3.99559 8.27133 4.10404 8.27133 4.18689 8.31354C4.25977 8.35067 4.31902 8.40992 4.35615 8.4828C4.39836 8.56564 4.39836 8.6741 4.39836 8.891V10.75C4.39836 10.9669 4.39836 11.0754 4.35615 11.1582C4.31902 11.2311 4.25977 11.2904 4.18689 11.3275C4.10404 11.3697 3.99559 11.3697 3.77868 11.3697H1.91966C1.70275 11.3697 1.5943 11.3697 1.51145 11.3275C1.43858 11.2904 1.37933 11.2311 1.3422 11.1582C1.29998 11.0754 1.29998 10.9669 1.29998 10.75V8.891Z" stroke="white" stroke-width="1.0503" stroke-linecap="round" stroke-linejoin="round"/>
    <path d="M0.525391 1.14507C0.525391 0.928159 0.525391 0.819706 0.567603 0.736858C0.604735 0.663984 0.663984 0.604735 0.736858 0.567603C0.819706 0.525391 0.928159 0.525391 1.14507 0.525391H3.00409C3.221 0.525391 3.32945 0.525391 3.4123 0.567603C3.48517 0.604735 3.54442 0.663984 3.58155 0.736858C3.62377 0.819706 3.62377 0.928159 3.62377 1.14507V3.00409C3.62377 3.221 3.62377 3.32945 3.58155 3.4123C3.54442 3.48517 3.48517 3.54442 3.4123 3.58155C3.32945 3.62377 3.221 3.62377 3.00409 3.62377H1.14507C0.928159 3.62377 0.819706 3.62377 0.736858 3.58155C0.663984 3.54442 0.604735 3.48517 0.567603 3.4123C0.525391 3.32945 0.525391 3.221 0.525391 3.00409V1.14507Z" stroke="white" stroke-width="1.0503" stroke-linecap="round" stroke-linejoin="round"/>
  </g>
</svg>
